<svg id="svg" version="1.1" xmlns="http://www.w3.org/2000/svg" xmlns:xlink="http://www.w3.org/1999/xlink" width="400" height="458.4" viewBox="0, 0, 400,458.4"><g id="svgg"><path id="path0" d="M134.867 29.255 C 135.197 29.318,135.737 29.318,136.067 29.255 C 136.397 29.191,136.127 29.139,135.467 29.139 C 134.807 29.139,134.537 29.191,134.867 29.255 M156.200 29.255 C 156.530 29.318,157.070 29.318,157.400 29.255 C 157.730 29.191,157.460 29.139,156.800 29.139 C 156.140 29.139,155.870 29.191,156.200 29.255 M58.531 111.867 C 58.531 141.347,58.562 153.446,58.600 138.755 C 58.638 124.063,58.638 99.943,58.600 85.155 C 58.562 70.366,58.531 82.387,58.531 111.867 M341.464 111.867 C 341.464 141.347,341.495 153.446,341.533 138.755 C 341.571 124.063,341.571 99.943,341.533 85.155 C 341.495 70.366,341.464 82.387,341.464 111.867 M112.488 87.933 C 125.883 87.972,147.723 87.972,161.021 87.933 C 174.320 87.895,163.360 87.864,136.667 87.864 C 109.973 87.864,99.093 87.895,112.488 87.933 M239.154 87.933 C 252.549 87.972,274.389 87.972,287.688 87.933 C 300.986 87.895,290.027 87.864,263.333 87.864 C 236.640 87.864,225.760 87.895,239.154 87.933 M87.863 126.800 C 87.863 148.067,87.895 156.727,87.933 146.046 C 87.972 135.364,87.972 117.964,87.933 107.379 C 87.895 96.794,87.863 105.533,87.863 126.800 M312.130 126.800 C 312.130 148.067,312.161 156.727,312.200 146.046 C 312.239 135.364,312.239 117.964,312.200 107.379 C 312.161 96.794,312.130 105.533,312.130 126.800 M136.733 117.266 L 155.733 117.337 155.800 229.402 L 155.868 341.467 155.867 229.333 L 155.867 117.200 136.800 117.197 L 117.733 117.195 136.733 117.266 M244.123 117.400 C 244.054 117.583,244.028 168.073,244.065 229.600 L 244.134 341.467 244.200 229.402 L 244.267 117.337 263.400 117.267 L 282.533 117.196 263.392 117.132 C 248.276 117.080,244.223 117.137,244.123 117.400 M292.915 349.067 C 292.915 352.660,292.953 354.130,292.999 352.333 C 293.045 350.537,293.045 347.597,292.999 345.800 C 292.953 344.003,292.915 345.473,292.915 349.067 M107.276 345.733 C 107.278 346.467,107.330 346.735,107.391 346.330 C 107.453 345.924,107.451 345.324,107.388 344.996 C 107.324 344.668,107.274 345.000,107.276 345.733 M107.280 349.600 C 107.280 350.407,107.330 350.737,107.391 350.333 C 107.452 349.930,107.452 349.270,107.391 348.867 C 107.330 348.463,107.280 348.793,107.280 349.600 M107.295 353.733 C 107.294 355.053,107.339 355.627,107.395 355.008 C 107.451 354.389,107.451 353.309,107.396 352.608 C 107.341 351.907,107.295 352.413,107.295 353.733 M106.933 365.511 C 106.933 368.249,106.989 370.433,107.056 370.366 C 107.332 370.090,107.480 360.533,107.209 360.533 C 107.029 360.533,106.933 362.265,106.933 365.511 M107.111 401.778 C 107.013 401.876,106.933 405.856,106.933 410.622 C 106.933 415.389,106.998 419.224,107.077 419.146 C 107.185 419.037,107.418 401.599,107.311 401.600 C 107.299 401.600,107.209 401.680,107.111 401.778 M292.616 408.667 C 292.617 409.547,292.667 409.875,292.727 409.395 C 292.786 408.916,292.785 408.196,292.724 407.795 C 292.663 407.395,292.614 407.787,292.616 408.667 M292.613 414.667 C 292.613 415.473,292.663 415.803,292.724 415.400 C 292.785 414.997,292.785 414.337,292.724 413.933 C 292.663 413.530,292.613 413.860,292.613 414.667 M292.606 417.600 C 292.606 418.260,292.658 418.530,292.722 418.200 C 292.785 417.870,292.785 417.330,292.722 417.000 C 292.658 416.670,292.606 416.940,292.606 417.600 M292.625 422.800 C 292.626 423.973,292.673 424.420,292.729 423.793 C 292.785 423.166,292.784 422.206,292.727 421.660 C 292.670 421.113,292.624 421.627,292.625 422.800 M115.400 429.526 C 115.877 429.585,116.657 429.585,117.133 429.526 C 117.610 429.467,117.220 429.419,116.267 429.419 C 115.313 429.419,114.923 429.467,115.400 429.526 M125.267 429.529 C 125.890 429.585,126.910 429.585,127.533 429.529 C 128.157 429.472,127.647 429.427,126.400 429.427 C 125.153 429.427,124.643 429.472,125.267 429.529 M139.267 429.524 C 139.670 429.585,140.330 429.585,140.733 429.524 C 141.137 429.463,140.807 429.413,140.000 429.413 C 139.193 429.413,138.863 429.463,139.267 429.524 M145.800 429.526 C 146.277 429.585,147.057 429.585,147.533 429.526 C 148.010 429.467,147.620 429.419,146.667 429.419 C 145.713 429.419,145.323 429.467,145.800 429.526 M150.342 429.530 C 151.117 429.584,152.317 429.584,153.009 429.529 C 153.701 429.474,153.067 429.430,151.600 429.431 C 150.133 429.431,149.567 429.476,150.342 429.530 M155.537 429.525 C 155.942 429.586,156.542 429.584,156.870 429.521 C 157.198 429.458,156.867 429.408,156.133 429.410 C 155.400 429.412,155.132 429.463,155.537 429.525 M181.800 429.522 C 182.130 429.585,182.670 429.585,183.000 429.522 C 183.330 429.458,183.060 429.406,182.400 429.406 C 181.740 429.406,181.470 429.458,181.800 429.522 M187.008 429.530 C 187.709 429.585,188.789 429.584,189.408 429.528 C 190.027 429.472,189.453 429.427,188.133 429.428 C 186.813 429.429,186.307 429.475,187.008 429.530 M216.733 429.526 C 217.210 429.585,217.990 429.585,218.467 429.526 C 218.943 429.467,218.553 429.419,217.600 429.419 C 216.647 429.419,216.257 429.467,216.733 429.526 M244.067 429.517 C 244.323 429.584,244.743 429.584,245.000 429.517 C 245.257 429.450,245.047 429.395,244.533 429.395 C 244.020 429.395,243.810 429.450,244.067 429.517 M247.405 429.527 C 247.884 429.586,248.604 429.585,249.005 429.524 C 249.405 429.463,249.013 429.414,248.133 429.416 C 247.253 429.417,246.925 429.467,247.405 429.527 M266.746 429.532 C 268.037 429.581,270.077 429.581,271.280 429.532 C 272.483 429.482,271.427 429.442,268.933 429.442 C 266.440 429.443,265.456 429.483,266.746 429.532 M278.867 429.526 C 279.343 429.585,280.123 429.585,280.600 429.526 C 281.077 429.467,280.687 429.419,279.733 429.419 C 278.780 429.419,278.390 429.467,278.867 429.526 " stroke="none" fill="#FFFFFF" fill-rule="evenodd"></path><path id="path1" d="M73.148 29.266 C 74.732 29.313,77.252 29.313,78.748 29.265 C 80.243 29.218,78.947 29.179,75.867 29.180 C 72.787 29.180,71.563 29.219,73.148 29.266 M335.400 29.255 C 335.730 29.318,336.270 29.318,336.600 29.255 C 336.930 29.191,336.660 29.139,336.000 29.139 C 335.340 29.139,335.070 29.191,335.400 29.255 M353.800 29.260 C 354.277 29.319,355.057 29.319,355.533 29.260 C 356.010 29.200,355.620 29.152,354.667 29.152 C 353.713 29.152,353.323 29.200,353.800 29.260 M292.909 418.667 C 292.909 421.087,292.949 422.077,292.998 420.867 C 293.048 419.657,293.048 417.677,292.998 416.467 C 292.949 415.257,292.909 416.247,292.909 418.667 M107.019 426.400 C 107.019 427.353,107.067 427.743,107.126 427.267 C 107.185 426.790,107.185 426.010,107.126 425.533 C 107.067 425.057,107.019 425.447,107.019 426.400 M112.203 429.522 C 112.535 429.586,113.015 429.583,113.270 429.517 C 113.525 429.450,113.253 429.398,112.667 429.401 C 112.080 429.404,111.871 429.458,112.203 429.522 M119.400 429.531 C 120.317 429.583,121.817 429.583,122.733 429.531 C 123.650 429.479,122.900 429.436,121.067 429.436 C 119.233 429.436,118.483 429.479,119.400 429.531 M131.000 429.532 C 132.430 429.580,134.770 429.580,136.200 429.532 C 137.630 429.484,136.460 429.445,133.600 429.445 C 130.740 429.445,129.570 429.484,131.000 429.532 M142.200 429.528 C 142.750 429.585,143.650 429.585,144.200 429.528 C 144.750 429.470,144.300 429.423,143.200 429.423 C 142.100 429.423,141.650 429.470,142.200 429.528 M157.667 429.517 C 157.923 429.584,158.343 429.584,158.600 429.517 C 158.857 429.450,158.647 429.395,158.133 429.395 C 157.620 429.395,157.410 429.450,157.667 429.517 M160.600 429.530 C 161.443 429.583,162.823 429.583,163.667 429.530 C 164.510 429.477,163.820 429.434,162.133 429.434 C 160.447 429.434,159.757 429.477,160.600 429.530 M167.276 429.531 C 168.125 429.584,169.445 429.583,170.210 429.530 C 170.974 429.476,170.280 429.432,168.667 429.433 C 167.053 429.434,166.428 429.478,167.276 429.531 M174.187 429.532 C 175.462 429.580,177.622 429.581,178.987 429.532 C 180.351 429.484,179.307 429.444,176.667 429.444 C 174.027 429.443,172.911 429.483,174.187 429.532 M184.070 429.525 C 184.476 429.586,185.076 429.584,185.404 429.521 C 185.732 429.458,185.400 429.408,184.667 429.410 C 183.933 429.412,183.665 429.463,184.070 429.525 M193.800 429.533 C 195.743 429.578,198.923 429.578,200.867 429.533 C 202.810 429.487,201.220 429.450,197.333 429.450 C 193.447 429.450,191.857 429.487,193.800 429.533 M206.607 429.529 C 207.234 429.585,208.194 429.584,208.740 429.527 C 209.287 429.470,208.773 429.424,207.600 429.425 C 206.427 429.426,205.980 429.473,206.607 429.529 M211.810 429.531 C 212.658 429.584,213.978 429.583,214.743 429.530 C 215.508 429.476,214.813 429.432,213.200 429.433 C 211.587 429.434,210.961 429.478,211.810 429.531 M219.800 429.524 C 220.203 429.585,220.863 429.585,221.267 429.524 C 221.670 429.463,221.340 429.413,220.533 429.413 C 219.727 429.413,219.397 429.463,219.800 429.524 M225.137 429.525 C 225.542 429.586,226.142 429.584,226.470 429.521 C 226.798 429.458,226.467 429.408,225.733 429.410 C 225.000 429.412,224.732 429.463,225.137 429.525 M228.742 429.530 C 229.517 429.584,230.717 429.584,231.409 429.529 C 232.101 429.474,231.467 429.430,230.000 429.431 C 228.533 429.431,227.967 429.476,228.742 429.530 M235.253 429.532 C 236.529 429.580,238.689 429.581,240.053 429.532 C 241.417 429.484,240.373 429.444,237.733 429.444 C 235.093 429.443,233.977 429.483,235.253 429.532 M250.200 429.524 C 250.603 429.585,251.263 429.585,251.667 429.524 C 252.070 429.463,251.740 429.413,250.933 429.413 C 250.127 429.413,249.797 429.463,250.200 429.524 M255.667 429.532 C 257.317 429.579,260.017 429.579,261.667 429.532 C 263.317 429.486,261.967 429.447,258.667 429.447 C 255.367 429.447,254.017 429.486,255.667 429.532 M274.467 429.529 C 275.163 429.584,276.303 429.584,277.000 429.529 C 277.697 429.474,277.127 429.429,275.733 429.429 C 274.340 429.429,273.770 429.474,274.467 429.529 M282.877 429.531 C 283.800 429.583,285.240 429.583,286.077 429.530 C 286.915 429.477,286.160 429.435,284.400 429.435 C 282.640 429.436,281.955 429.479,282.877 429.531 M289.005 429.527 C 289.484 429.586,290.204 429.585,290.605 429.524 C 291.005 429.463,290.613 429.414,289.733 429.416 C 288.853 429.417,288.525 429.467,289.005 429.527 " stroke="none" fill="#FFFFFF" fill-rule="evenodd"></path><path id="path2" d="M370.798 97.867 C 370.798 135.047,370.829 150.257,370.867 131.667 C 370.904 113.077,370.904 82.657,370.867 64.067 C 370.829 45.477,370.798 60.687,370.798 97.867 M29.160 44.800 C 29.160 46.047,29.206 46.557,29.262 45.933 C 29.318 45.310,29.318 44.290,29.262 43.667 C 29.206 43.043,29.160 43.553,29.160 44.800 M29.152 63.467 C 29.152 64.420,29.200 64.810,29.260 64.333 C 29.319 63.857,29.319 63.077,29.260 62.600 C 29.200 62.123,29.152 62.513,29.152 63.467 M29.168 79.200 C 29.168 80.887,29.211 81.577,29.264 80.733 C 29.317 79.890,29.317 78.510,29.264 77.667 C 29.211 76.823,29.168 77.513,29.168 79.200 M117.194 141.600 C 117.194 154.873,117.227 160.303,117.267 153.667 C 117.306 147.030,117.306 136.170,117.267 129.533 C 117.227 122.897,117.194 128.327,117.194 141.600 M282.794 141.600 C 282.794 154.873,282.827 160.303,282.867 153.667 C 282.906 147.030,282.906 136.170,282.867 129.533 C 282.827 122.897,282.794 128.327,282.794 141.600 M29.129 154.933 C 29.129 155.447,29.183 155.657,29.250 155.400 C 29.318 155.143,29.318 154.723,29.250 154.467 C 29.183 154.210,29.129 154.420,29.129 154.933 M43.661 166.059 C 44.134 166.118,44.974 166.119,45.527 166.061 C 46.081 166.004,45.693 165.955,44.667 165.954 C 43.640 165.953,43.187 166.000,43.661 166.059 M53.007 166.062 C 53.634 166.119,54.594 166.118,55.140 166.061 C 55.687 166.003,55.173 165.957,54.000 165.958 C 52.827 165.959,52.380 166.006,53.007 166.062 M97.267 166.065 C 98.623 166.114,100.843 166.114,102.200 166.065 C 103.557 166.017,102.447 165.977,99.733 165.977 C 97.020 165.977,95.910 166.017,97.267 166.065 M105.807 166.062 C 106.434 166.119,107.394 166.118,107.940 166.061 C 108.487 166.003,107.973 165.957,106.800 165.958 C 105.627 165.959,105.180 166.006,105.807 166.062 M352.736 166.055 C 353.068 166.119,353.548 166.117,353.803 166.050 C 354.058 165.983,353.787 165.931,353.200 165.934 C 352.613 165.937,352.405 165.991,352.736 166.055 M356.209 166.064 C 356.984 166.118,358.184 166.117,358.876 166.062 C 359.567 166.008,358.933 165.963,357.467 165.964 C 356.000 165.965,355.434 166.010,356.209 166.064 M366.200 166.063 C 366.897 166.118,368.037 166.118,368.733 166.063 C 369.430 166.008,368.860 165.963,367.467 165.963 C 366.073 165.963,365.503 166.008,366.200 166.063 M107.053 351.733 C 107.053 356.647,107.089 358.657,107.133 356.200 C 107.177 353.743,107.177 349.723,107.133 347.267 C 107.089 344.810,107.053 346.820,107.053 351.733 M292.916 362.400 C 292.916 366.287,292.954 367.877,292.999 365.933 C 293.045 363.990,293.045 360.810,292.999 358.867 C 292.954 356.923,292.916 358.513,292.916 362.400 M106.995 401.067 C 106.995 401.580,107.050 401.790,107.117 401.533 C 107.184 401.277,107.184 400.857,107.117 400.600 C 107.050 400.343,106.995 400.553,106.995 401.067 M292.914 408.400 C 292.915 411.773,292.953 413.117,292.999 411.385 C 293.046 409.653,293.046 406.893,292.999 405.252 C 292.952 403.610,292.914 405.027,292.914 408.400 M107.033 422.000 C 107.034 423.613,107.078 424.239,107.131 423.390 C 107.184 422.542,107.183 421.222,107.130 420.457 C 107.076 419.692,107.032 420.387,107.033 422.000 M292.897 425.467 C 292.898 426.933,292.943 427.499,292.997 426.724 C 293.051 425.949,293.050 424.749,292.996 424.058 C 292.941 423.366,292.897 424.000,292.897 425.467 " stroke="none" fill="#FFFFFF" fill-rule="evenodd"></path><path id="path3" d="M29.241 29.289 C 28.940 29.844,29.105 165.593,29.407 165.789 C 29.853 166.078,56.009 166.068,56.632 165.778 C 56.925 165.642,57.070 165.646,56.982 165.788 C 56.900 165.920,57.216 166.039,57.683 166.053 L 58.533 166.077 58.464 112.305 L 58.395 58.533 199.999 58.533 L 341.604 58.533 341.598 112.267 L 341.592 166.000 356.130 165.960 L 370.668 165.919 370.671 97.560 L 370.674 29.200 200.005 29.156 C 106.138 29.132,29.294 29.192,29.241 29.289 M87.867 126.867 C 87.867 148.317,87.927 165.879,88.000 165.894 C 88.446 165.986,116.232 166.043,116.667 165.953 C 117.196 165.843,117.199 165.658,117.126 142.055 C 117.085 128.971,117.118 117.997,117.198 117.667 L 117.343 117.067 136.672 117.067 L 156.000 117.067 156.000 229.200 L 156.000 341.333 133.400 341.369 C 120.970 341.389,110.050 341.395,109.133 341.382 C 108.217 341.370,107.459 341.444,107.451 341.546 C 107.197 344.509,107.363 370.672,107.636 370.777 C 107.827 370.850,125.372 370.918,146.626 370.927 L 185.268 370.945 185.431 370.339 C 185.520 370.006,185.594 306.313,185.596 228.800 L 185.598 87.867 136.732 87.867 L 87.867 87.867 87.867 126.867 M214.404 228.800 C 214.406 306.313,214.479 370.004,214.568 370.335 L 214.730 370.937 253.747 370.932 L 292.765 370.926 292.783 356.174 C 292.798 343.231,292.751 341.422,292.400 341.422 C 292.180 341.422,291.998 341.552,291.996 341.711 C 291.994 341.873,291.895 341.847,291.771 341.653 C 291.650 341.462,291.442 341.326,291.309 341.351 C 291.176 341.376,280.477 341.382,267.533 341.365 L 244.000 341.333 244.000 229.200 L 244.000 117.067 263.328 117.067 L 282.657 117.067 282.802 117.667 C 282.882 117.997,282.915 128.971,282.874 142.055 L 282.800 165.842 283.397 165.992 C 283.725 166.075,290.325 166.136,298.064 166.129 L 312.133 166.115 312.133 126.991 L 312.133 87.867 263.268 87.867 L 214.402 87.867 214.404 228.800 M107.235 414.700 C 107.212 428.649,107.240 429.632,107.656 429.295 C 107.902 429.096,108.031 429.053,107.943 429.200 C 107.762 429.503,109.343 429.524,109.826 429.225 C 109.995 429.121,110.133 429.132,110.133 429.251 C 110.133 429.370,120.183 429.438,132.467 429.404 C 144.750 429.369,185.820 429.339,223.733 429.337 L 292.667 429.333 292.667 414.790 C 292.667 402.153,292.614 400.214,292.267 399.996 C 292.018 399.839,256.996 399.744,199.563 399.744 L 107.260 399.744 107.235 414.700 " stroke="none" fill="#FFFFFF" fill-rule="evenodd"></path><path id="path4" d="M29.241 29.289 C 28.940 29.844,29.105 165.593,29.407 165.789 C 29.853 166.078,56.009 166.068,56.632 165.778 C 56.925 165.642,57.070 165.646,56.982 165.788 C 56.900 165.920,57.216 166.039,57.683 166.053 L 58.533 166.077 58.464 112.305 L 58.395 58.533 199.999 58.533 L 341.604 58.533 341.598 112.267 L 341.592 166.000 356.130 165.960 L 370.668 165.919 370.671 97.560 L 370.674 29.200 200.005 29.156 C 106.138 29.132,29.294 29.192,29.241 29.289 M87.867 126.867 C 87.867 148.317,87.927 165.879,88.000 165.894 C 88.446 165.986,116.232 166.043,116.667 165.953 C 117.196 165.843,117.199 165.658,117.126 142.055 C 117.085 128.971,117.118 117.997,117.198 117.667 L 117.343 117.067 136.672 117.067 L 156.000 117.067 156.000 229.200 L 156.000 341.333 133.400 341.369 C 120.970 341.389,110.050 341.395,109.133 341.382 C 108.217 341.370,107.459 341.444,107.451 341.546 C 107.197 344.509,107.363 370.672,107.636 370.777 C 107.827 370.850,125.372 370.918,146.626 370.927 L 185.268 370.945 185.431 370.339 C 185.520 370.006,185.594 306.313,185.596 228.800 L 185.598 87.867 136.732 87.867 L 87.867 87.867 87.867 126.867 M214.404 228.800 C 214.406 306.313,214.479 370.004,214.568 370.335 L 214.730 370.937 253.747 370.932 L 292.765 370.926 292.783 356.174 C 292.798 343.231,292.751 341.422,292.400 341.422 C 292.180 341.422,291.998 341.552,291.996 341.711 C 291.994 341.873,291.895 341.847,291.771 341.653 C 291.650 341.462,291.442 341.326,291.309 341.351 C 291.176 341.376,280.477 341.382,267.533 341.365 L 244.000 341.333 244.000 229.200 L 244.000 117.067 263.328 117.067 L 282.657 117.067 282.802 117.667 C 282.882 117.997,282.915 128.971,282.874 142.055 L 282.800 165.842 283.397 165.992 C 283.725 166.075,290.325 166.136,298.064 166.129 L 312.133 166.115 312.133 126.991 L 312.133 87.867 263.268 87.867 L 214.402 87.867 214.404 228.800 M107.235 414.700 C 107.212 428.649,107.240 429.632,107.656 429.295 C 107.902 429.096,108.031 429.053,107.943 429.200 C 107.762 429.503,109.343 429.524,109.826 429.225 C 109.995 429.121,110.133 429.132,110.133 429.251 C 110.133 429.370,120.183 429.438,132.467 429.404 C 144.750 429.369,185.820 429.339,223.733 429.337 L 292.667 429.333 292.667 414.790 C 292.667 402.153,292.614 400.214,292.267 399.996 C 292.018 399.839,256.996 399.744,199.563 399.744 L 107.260 399.744 107.235 414.700 " stroke="none" fill="#FFFFFF" fill-rule="evenodd"></path></g></svg>
